<svg width="30" height="30" viewBox="0 0 30 30" fill="none" xmlns="http://www.w3.org/2000/svg">
<rect width="30" height="30" rx="15" fill="#422659"/>
<path d="M11.6667 19.9998C10.75 19.9998 10.0084 20.7498 10.0084 21.6665C10.0084 22.5832 10.75 23.3332 11.6667 23.3332C12.5834 23.3332 13.3334 22.5832 13.3334 21.6665C13.3334 20.7498 12.5834 19.9998 11.6667 19.9998ZM7.50002 6.6665C7.03978 6.6665 6.66669 7.0396 6.66669 7.49984C6.66669 7.96007 7.03978 8.33317 7.50002 8.33317H7.70088C8.08714 8.33317 8.43887 8.55563 8.6044 8.90462L11.1139 14.1955C11.2517 14.486 11.2414 14.8251 11.0862 15.1067L10.2084 16.6998C10.075 16.9332 10 17.2082 10 17.4998C10 18.4165 10.75 19.1665 11.6667 19.1665H20.8334C21.2936 19.1665 21.6667 18.7934 21.6667 18.3332C21.6667 17.8729 21.2936 17.4998 20.8334 17.4998H12.0167C11.9172 17.4998 11.8358 17.4331 11.8141 17.3411C11.8064 17.3088 11.8124 17.2752 11.8205 17.243C11.829 17.2088 11.842 17.1759 11.859 17.1451L12.2981 16.3498C12.4741 16.0311 12.8094 15.8332 13.1735 15.8332H18.7917C19.4167 15.8332 19.9667 15.4915 20.25 14.9748L23.2334 9.5665C23.3 9.44984 23.3334 9.30817 23.3334 9.1665C23.3334 8.70817 22.9584 8.33317 22.5 8.33317H10.81C10.4224 8.33317 10.0698 8.10926 9.90494 7.75853L9.66177 7.24114C9.49692 6.89041 9.14428 6.6665 8.75674 6.6665H7.50002ZM20 19.9998C19.0834 19.9998 18.3417 20.7498 18.3417 21.6665C18.3417 22.5832 19.0834 23.3332 20 23.3332C20.9167 23.3332 21.6667 22.5832 21.6667 21.6665C21.6667 20.7498 20.9167 19.9998 20 19.9998Z" fill="white"/>
</svg>
