<svg width="28" height="29" viewBox="0 0 28 29" fill="none" xmlns="http://www.w3.org/2000/svg">
<path d="M19.8333 9.50016H18.1667C18.1667 7.20016 16.3 5.3335 14 5.3335C11.7 5.3335 9.83333 7.20016 9.83333 9.50016H8.16667C7.25 9.50016 6.5 10.2502 6.5 11.1668V21.1668C6.5 22.0835 7.25 22.8335 8.16667 22.8335H19.8333C20.75 22.8335 21.5 22.0835 21.5 21.1668V11.1668C21.5 10.2502 20.75 9.50016 19.8333 9.50016ZM14 7.00016C15.3833 7.00016 16.5 8.11683 16.5 9.50016H11.5C11.5 8.11683 12.6167 7.00016 14 7.00016ZM19.8333 21.1668H8.16667V11.1668H19.8333V21.1668ZM14 14.5002C12.6167 14.5002 11.5 13.3835 11.5 12.0002H9.83333C9.83333 14.3002 11.7 16.1668 14 16.1668C16.3 16.1668 18.1667 14.3002 18.1667 12.0002H16.5C16.5 13.3835 15.3833 14.5002 14 14.5002Z" fill="#495F6A"/>
<g clip-path="url(#clip0_2459_20459)">
<circle cx="21" cy="7.5" r="4" fill="#FFB400"/>
</g>
<defs>
<clipPath id="clip0_2459_20459">
<rect width="8" height="8" fill="white" transform="translate(17 3.5)"/>
</clipPath>
</defs>
</svg>
