<svg width="32" height="33" viewBox="0 0 32 33" fill="none" xmlns="http://www.w3.org/2000/svg">
<path d="M13 23C13 23.5523 13.4477 24 14 24H25C25.5523 24 26 23.5523 26 23C26 22.4477 25.5523 22 25 22H14C13.4477 22 13 22.4477 13 23ZM7 9C6.44772 9 6 9.44772 6 10C6 10.5523 6.44772 11 7 11H25C25.5523 11 26 10.5523 26 10C26 9.44772 25.5523 9 25 9H7ZM15 17C15 17.5523 15.4477 18 16 18H25C25.5523 18 26 17.5523 26 17C26 16.4477 25.5523 16 25 16H16C15.4477 16 15 16.4477 15 17Z" fill="#495F6A"/>
<rect x="11" y="16" width="2" height="2" rx="1" fill="#495F6A"/>
</svg>
