<svg width="32" height="33" viewBox="0 0 32 33" fill="none" xmlns="http://www.w3.org/2000/svg">
<path fill-rule="evenodd" clip-rule="evenodd" d="M20.5445 15.5222C20.5445 18.5721 18.0721 21.0445 15.0222 21.0445C11.9724 21.0445 9.5 18.5721 9.5 15.5222C9.5 12.4724 11.9724 10 15.0222 10C18.0721 10 20.5445 12.4724 20.5445 15.5222ZM19.5848 21.5033C18.3192 22.4701 16.7378 23.0445 15.0222 23.0445C10.8678 23.0445 7.5 19.6766 7.5 15.5222C7.5 11.3678 10.8678 8 15.0222 8C19.1766 8 22.5445 11.3678 22.5445 15.5222C22.5445 17.2379 21.9701 18.8193 21.0032 20.0849L24.2083 23.29C24.5988 23.6805 24.5967 24.3158 24.2062 24.7063C23.8157 25.0968 23.1804 25.0989 22.7899 24.7084L19.5848 21.5033Z" fill="#495F6A"/>
</svg>
