<svg width="22" height="22" viewBox="0 0 22 22" fill="none" xmlns="http://www.w3.org/2000/svg">
<g clip-path="url(#clip0_2459_36760)">
<path opacity="0.9" d="M18.8992 5.43708C18.7613 5.24973 18.5232 5.16465 18.2981 5.22266C17.7223 5.3709 16.6154 5.78426 15.799 6.87524C15.2082 7.66543 13.9582 7.11157 14.1443 6.14262C14.2285 5.70305 14.3939 5.21407 14.6728 4.67696C15.9657 2.18735 13.9853 0.284693 13.8439 0.153639C13.8384 0.148482 13.8328 0.144186 13.8263 0.139459C13.7602 0.0943418 13.361 -0.154447 12.9884 0.146334C12.9064 0.212506 10.9315 1.7654 8.93176 4.15661C6.77086 6.74075 4.81836 10.0248 4.81836 13.4061C4.81836 18.1447 8.67352 21.9994 13.4117 21.9994C18.1498 21.9994 22.005 18.1442 22.005 13.4061C22.005 10.5568 20.618 7.77801 18.8979 5.43708H18.8992Z" fill="#422659"/>
<path opacity="0.9" d="M6.03129 4.14062H2.19805C1.61189 4.14062 1.13672 4.6158 1.13672 5.20195C1.13672 5.78811 1.61189 6.26328 2.19805 6.26328H6.03129C6.61744 6.26328 7.09262 5.78811 7.09262 5.20195C7.09262 4.6158 6.61744 4.14062 6.03129 4.14062Z" fill="#422659"/>
<path opacity="0.9" d="M3.75746 8.38281H1.06719C0.481032 8.38281 0.00585938 8.85799 0.00585938 9.44414C0.00585938 10.0303 0.481032 10.5055 1.06719 10.5055H3.75746C4.34362 10.5055 4.81879 10.0303 4.81879 9.44414C4.81879 8.85799 4.34362 8.38281 3.75746 8.38281Z" fill="#422659"/>
<path opacity="0.9" d="M3.22242 12.6289H2.84258C2.25642 12.6289 1.78125 13.1041 1.78125 13.6902C1.78125 14.2764 2.25642 14.7516 2.84258 14.7516H3.22242C3.80858 14.7516 4.28375 14.2764 4.28375 13.6902C4.28375 13.1041 3.80858 12.6289 3.22242 12.6289Z" fill="#422659"/>
<path opacity="0.9" d="M4.37602 16.8594H1.47734C0.891188 16.8594 0.416016 17.3345 0.416016 17.9207C0.416016 18.5069 0.891188 18.982 1.47734 18.982H4.37602C4.96217 18.982 5.43734 18.5069 5.43734 17.9207C5.43734 17.3345 4.96217 16.8594 4.37602 16.8594Z" fill="#422659"/>
<path opacity="0.9" d="M19.466 6.24489C19.2821 5.97032 19.093 5.7009 18.8992 5.43708C18.7613 5.24973 18.5232 5.16465 18.2981 5.22266C17.7223 5.3709 16.6154 5.78426 15.799 6.87524C15.2082 7.66544 13.9582 7.11157 14.1443 6.14262C14.2285 5.70305 14.3939 5.21407 14.6728 4.67696C15.9657 2.18735 13.9853 0.284693 13.8439 0.153639C13.8384 0.148482 13.8328 0.144186 13.8263 0.139459C13.7602 0.0943418 13.361 -0.154447 12.9884 0.146334C12.9064 0.212506 10.9315 1.7654 8.93176 4.15661C6.77086 6.74075 4.81836 10.0248 4.81836 13.4061C4.81836 14.6917 5.10281 15.912 5.61113 17.0086C6.26297 17.1194 6.93285 17.1774 7.61605 17.1774C13.8598 17.1774 18.9787 12.3636 19.4651 6.24489H19.466Z" fill="#422659"/>
<path opacity="0.9" d="M13.4239 18.9963C10.7229 18.9963 8.5332 16.8066 8.5332 14.1055C8.5332 11.4045 10.7229 9.21484 13.4239 9.21484C16.1249 9.21484 18.3146 11.4045 18.3146 14.1055C18.3146 16.8066 16.1249 18.9963 13.4239 18.9963Z" fill="white"/>
<path opacity="0.9" d="M15.3618 13.6585H13.9086V11.1135C13.9086 10.7921 13.6482 10.5312 13.3264 10.5312C13.0045 10.5312 12.7441 10.7916 12.7441 11.1135V14.2407C12.7441 14.5621 13.0045 14.823 13.3264 14.823H15.3618C15.6832 14.823 15.944 14.5626 15.944 14.2407C15.944 13.9189 15.6836 13.6585 15.3618 13.6585Z" fill="#422659"/>
</g>
<defs>
<clipPath id="clip0_2459_36760">
<rect width="22" height="22" fill="white"/>
</clipPath>
</defs>
</svg>
