<svg width="44" height="24" viewBox="0 0 44 24" fill="none" xmlns="http://www.w3.org/2000/svg">
<path opacity="0.9" d="M12.002 22C17.5248 22 22.002 17.5228 22.002 12C22.002 6.47715 17.5248 2 12.002 2C6.47911 2 2.00195 6.47715 2.00195 12C2.00195 17.5228 6.47911 22 12.002 22Z" fill="#27273D"/>
<path opacity="0.9" d="M21.3824 8.52812H2.62109C4.0332 4.71641 7.69961 2 12.002 2C16.3043 2 19.9707 4.71641 21.3824 8.52812Z" fill="#ED5F60"/>
<path opacity="0.9" d="M21.3819 15.4707H2.6206C1.79313 13.2302 1.79313 10.7678 2.6206 8.52734H21.3819C21.5211 8.90288 21.6373 9.28653 21.73 9.67617C22.1864 11.5999 22.0653 13.6155 21.3819 15.4707Z" fill="white"/>
<path opacity="0.9" d="M12.002 22.0012C9.95872 22.0012 7.96447 21.3756 6.2874 20.2085C4.61033 19.0413 3.33087 17.3886 2.62109 15.4727H21.3824C21.2371 15.8661 21.0669 16.2498 20.8727 16.6215C20.0275 18.2437 18.7536 19.6031 17.1895 20.5517C15.6254 21.5002 13.8312 22.0016 12.002 22.0012Z" fill="#43A047"/>
<path opacity="0.9" d="M13.3105 2.08477C9.58476 2.57188 6.5043 5.10938 5.23828 8.53008H2.62109C4.0332 4.71641 7.69961 2 12.002 2C12.4395 1.99993 12.8766 2.02825 13.3105 2.08477Z" fill="#ED5F60"/>
<path opacity="0.9" d="M4.61865 11.9992C4.61727 13.184 4.82693 14.3595 5.23779 15.4707H2.6206C1.79313 13.2302 1.79313 10.7678 2.6206 8.52734H5.23779C5.09939 8.90293 4.98394 9.28658 4.89209 9.67617C4.71043 10.4372 4.61866 11.2168 4.61865 11.9992Z" fill="white"/>
<path opacity="0.9" d="M13.3105 21.9164C12.8766 21.9729 12.4395 22.0013 12.002 22.0012C9.95872 22.0012 7.96447 21.3756 6.2874 20.2085C4.61033 19.0413 3.33087 17.3886 2.62109 15.4727H5.23828C5.8703 17.1796 6.95596 18.6818 8.37837 19.8175C9.80078 20.9533 11.506 21.6795 13.3105 21.918V21.9164Z" fill="#43A047"/>
<path opacity="0.9" d="M17.9406 6.40469C18.2918 6.40469 18.5766 6.11997 18.5766 5.76875C18.5766 5.41753 18.2918 5.13281 17.9406 5.13281C17.5894 5.13281 17.3047 5.41753 17.3047 5.76875C17.3047 6.11997 17.5894 6.40469 17.9406 6.40469Z" fill="white"/>
<path opacity="0.9" d="M17.0051 5.27969C17.2538 5.27969 17.4555 5.07804 17.4555 4.8293C17.4555 4.58055 17.2538 4.37891 17.0051 4.37891C16.7563 4.37891 16.5547 4.58055 16.5547 4.8293C16.5547 5.07804 16.7563 5.27969 17.0051 5.27969Z" fill="white"/>
<path opacity="0.9" d="M12.0023 15.118C13.7252 15.118 15.1219 13.7213 15.1219 11.9984C15.1219 10.2756 13.7252 8.87891 12.0023 8.87891C10.2795 8.87891 8.88281 10.2756 8.88281 11.9984C8.88281 13.7213 10.2795 15.118 12.0023 15.118Z" fill="#495F6A"/>
<path opacity="0.9" d="M14.4566 11.7445L14.3109 11.7121C14.3109 11.7004 14.3082 11.6887 14.3066 11.6773L14.4387 11.6078C14.461 11.5963 14.4788 11.5774 14.4889 11.5544C14.4991 11.5314 14.5011 11.5056 14.4945 11.4812L14.4191 11.1992C14.4126 11.1749 14.398 11.1535 14.3777 11.1386C14.3574 11.1237 14.3326 11.1161 14.3074 11.1172L14.1586 11.1234C14.1543 11.1125 14.15 11.1016 14.1453 11.0906L14.2547 10.9902C14.2733 10.9733 14.2855 10.9505 14.2894 10.9256C14.2932 10.9007 14.2884 10.8753 14.2758 10.8535L14.1297 10.6004C14.1171 10.5786 14.0975 10.5617 14.0741 10.5526C14.0506 10.5436 14.0247 10.5428 14.0008 10.5504L13.8586 10.5949C13.8516 10.5855 13.8441 10.5766 13.8371 10.5676L13.9172 10.4414C13.9307 10.4201 13.9366 10.3949 13.9338 10.3698C13.931 10.3447 13.9198 10.3213 13.902 10.3035L13.6957 10.0973C13.6779 10.0794 13.6545 10.0682 13.6294 10.0654C13.6044 10.0627 13.5791 10.0685 13.5578 10.082L13.4316 10.1625L13.4043 10.141L13.4488 9.99883C13.4565 9.97486 13.4557 9.949 13.4466 9.92555C13.4375 9.9021 13.4206 9.88247 13.3988 9.86992L13.1457 9.72383C13.1239 9.7112 13.0985 9.7064 13.0736 9.71024C13.0487 9.71408 13.0259 9.72632 13.009 9.74492L12.9086 9.8543L12.8758 9.84102L12.882 9.69219C12.8831 9.66702 12.8755 9.64225 12.8606 9.62194C12.8457 9.60164 12.8243 9.58701 12.8 9.58047L12.518 9.50508C12.4937 9.49863 12.468 9.50065 12.4451 9.5108C12.4221 9.52096 12.4033 9.53865 12.3918 9.56094L12.3223 9.69375L12.2875 9.68945L12.2551 9.54375C12.2497 9.51915 12.2361 9.49713 12.2165 9.48135C12.1969 9.46557 12.1724 9.45699 12.1473 9.45703H11.8551C11.8299 9.45699 11.8055 9.46557 11.7859 9.48135C11.7662 9.49713 11.7526 9.51915 11.7473 9.54375L11.7148 9.68945L11.6801 9.69375L11.6105 9.56094C11.599 9.53857 11.5802 9.52083 11.5571 9.51066C11.5341 9.5005 11.5083 9.49853 11.484 9.50508L11.202 9.58047C11.1776 9.58701 11.1563 9.60164 11.1413 9.62194C11.1264 9.64225 11.1189 9.66702 11.1199 9.69219L11.1262 9.84102L11.0934 9.8543L10.993 9.74492C10.976 9.72632 10.9532 9.71408 10.9283 9.71024C10.9035 9.7064 10.878 9.7112 10.8563 9.72383L10.6031 9.86992C10.5813 9.88247 10.5645 9.9021 10.5554 9.92555C10.5463 9.949 10.5455 9.97486 10.5531 9.99883L10.5977 10.141L10.5703 10.1625L10.4445 10.0844C10.4232 10.0709 10.398 10.065 10.3729 10.0678C10.3478 10.0705 10.3245 10.0818 10.3066 10.0996L10.1004 10.3059C10.0826 10.3237 10.0713 10.3471 10.0686 10.3721C10.0658 10.3972 10.0716 10.4225 10.0852 10.4437L10.1652 10.5699C10.1582 10.5789 10.1508 10.5879 10.1438 10.5973L10.0016 10.5527C9.9776 10.5451 9.95174 10.5459 9.92829 10.555C9.90484 10.5641 9.88521 10.5809 9.87266 10.6027L9.72656 10.8559C9.71393 10.8776 9.70913 10.9031 9.71297 10.9279C9.71681 10.9528 9.72905 10.9756 9.74766 10.9926L9.85703 11.093C9.85234 11.1039 9.84805 11.1148 9.84375 11.1258L9.69492 11.1195C9.66975 11.1185 9.64498 11.126 9.62468 11.141C9.60437 11.1559 9.58975 11.1772 9.5832 11.2016L9.50781 11.4836C9.50185 11.5076 9.50411 11.5328 9.51424 11.5554C9.52437 11.5779 9.54178 11.5964 9.56367 11.6078L9.6957 11.677C9.6957 11.6883 9.69297 11.7 9.69141 11.7117L9.5457 11.7441C9.52111 11.7495 9.49908 11.7631 9.48331 11.7827C9.46753 11.8023 9.45894 11.8268 9.45898 11.852V12.1441C9.45894 12.1693 9.46753 12.1937 9.48331 12.2134C9.49908 12.233 9.52111 12.2466 9.5457 12.252L9.69141 12.2844C9.69141 12.2961 9.69414 12.3078 9.6957 12.3191L9.56367 12.3891C9.5413 12.4006 9.52356 12.4195 9.5134 12.4425C9.50323 12.4655 9.50126 12.4913 9.50781 12.5156L9.5832 12.7977C9.58975 12.822 9.60437 12.8434 9.62468 12.8583C9.64498 12.8732 9.66975 12.8807 9.69492 12.8797L9.84375 12.8734C9.84805 12.8844 9.85234 12.8953 9.85703 12.9062L9.74766 13.0066C9.72905 13.0236 9.71681 13.0464 9.71297 13.0713C9.70913 13.0962 9.71393 13.1216 9.72656 13.1434L9.87266 13.3965C9.88521 13.4183 9.90484 13.4351 9.92829 13.4442C9.95174 13.4533 9.9776 13.4541 10.0016 13.4465L10.1438 13.402C10.1508 13.4113 10.1582 13.4203 10.1652 13.4293L10.0871 13.5551C10.0736 13.5764 10.0677 13.6016 10.0705 13.6267C10.0733 13.6518 10.0845 13.6751 10.1023 13.693L10.3086 13.8992C10.3264 13.9171 10.3498 13.9283 10.3749 13.931C10.3999 13.9338 10.4252 13.928 10.4465 13.9145L10.5727 13.8344L10.6 13.8559L10.5555 13.998C10.5478 14.022 10.5486 14.0479 10.5577 14.0713C10.5668 14.0948 10.5837 14.1144 10.6055 14.127L10.8586 14.273C10.8804 14.2857 10.9058 14.2905 10.9307 14.2866C10.9556 14.2828 10.9784 14.2706 10.9953 14.252L11.0957 14.1426L11.1285 14.1559L11.1223 14.3047C11.1212 14.3299 11.1288 14.3546 11.1437 14.3749C11.1586 14.3952 11.18 14.4099 11.2043 14.4164L11.4863 14.4918C11.5103 14.4978 11.5356 14.4955 11.5581 14.4854C11.5806 14.4752 11.5991 14.4578 11.6105 14.4359L11.6797 14.3039L11.7145 14.3082L11.7469 14.4539C11.7522 14.4785 11.7659 14.5005 11.7855 14.5163C11.8051 14.5321 11.8295 14.5407 11.8547 14.5406H12.1469C12.172 14.5407 12.1965 14.5321 12.2161 14.5163C12.2357 14.5005 12.2493 14.4785 12.2547 14.4539L12.2871 14.3082L12.3219 14.3039L12.3918 14.4359C12.4033 14.4583 12.4222 14.476 12.4452 14.4862C12.4682 14.4964 12.4941 14.4983 12.5184 14.4918L12.8004 14.4164C12.8247 14.4099 12.8461 14.3952 12.861 14.3749C12.8759 14.3546 12.8835 14.3299 12.8824 14.3047L12.8762 14.1559L12.909 14.1426L13.0094 14.252C13.0263 14.2706 13.0491 14.2828 13.074 14.2866C13.0989 14.2905 13.1243 14.2857 13.1461 14.273L13.3992 14.127C13.421 14.1144 13.4379 14.0948 13.447 14.0713C13.4561 14.0479 13.4569 14.022 13.4492 13.998L13.4047 13.8559L13.432 13.8344L13.5582 13.9145C13.5795 13.928 13.6048 13.9338 13.6298 13.931C13.6549 13.9283 13.6783 13.9171 13.6961 13.8992L13.9023 13.693C13.9202 13.6751 13.9314 13.6518 13.9342 13.6267C13.9369 13.6016 13.9311 13.5764 13.9176 13.5551L13.8371 13.4289C13.8441 13.4199 13.8516 13.4109 13.8586 13.4016L14.0008 13.4461C14.0247 13.4537 14.0506 13.4529 14.0741 13.4438C14.0975 13.4347 14.1171 13.4179 14.1297 13.3961L14.2758 13.143C14.2884 13.1212 14.2932 13.0958 14.2894 13.0709C14.2855 13.046 14.2733 13.0232 14.2547 13.0062L14.1453 12.9059C14.15 12.8949 14.1543 12.884 14.1586 12.873L14.3074 12.8793C14.3326 12.8803 14.3574 12.8728 14.3777 12.8579C14.398 12.843 14.4126 12.8216 14.4191 12.7973L14.4945 12.5152C14.501 12.491 14.499 12.4653 14.4888 12.4423C14.4786 12.4194 14.461 12.4006 14.4387 12.3891L14.3059 12.3195C14.3059 12.3082 14.3086 12.2965 14.3102 12.2848L14.4559 12.2523C14.4805 12.247 14.5025 12.2334 14.5183 12.2138C14.534 12.1941 14.5426 12.1697 14.5426 12.1445V11.8523C14.5427 11.8273 14.5342 11.8029 14.5186 11.7833C14.5029 11.7637 14.4811 11.75 14.4566 11.7445Z" fill="white"/>
<path opacity="0.9" d="M12.4803 11.9988C12.481 12.0079 12.481 12.0171 12.4803 12.0262C12.4796 12.0513 12.4764 12.0763 12.4709 12.1008C12.4633 12.1363 12.4515 12.1708 12.4357 12.2035C12.4229 12.231 12.4074 12.2571 12.3896 12.2816C12.3683 12.3104 12.3436 12.3367 12.3162 12.3598C12.2986 12.3755 12.2797 12.3896 12.2596 12.402C12.229 12.4216 12.1962 12.4375 12.1619 12.4492C12.1278 12.462 12.0923 12.4702 12.0561 12.4738C12.0203 12.4785 11.984 12.4785 11.9482 12.4738C11.9198 12.471 11.8916 12.4654 11.8643 12.457C11.8295 12.4469 11.7962 12.4325 11.765 12.4141C11.7416 12.401 11.7194 12.3858 11.6986 12.3688C11.6703 12.346 11.645 12.3197 11.6232 12.2906C11.6035 12.2665 11.5864 12.2403 11.5725 12.2125C11.5561 12.18 11.5439 12.1456 11.5361 12.1102C11.5291 12.0828 11.5251 12.0548 11.524 12.0266C11.5232 12.0175 11.5232 12.0083 11.524 11.9992C11.5242 11.972 11.5265 11.9448 11.5311 11.918C11.5348 11.8936 11.541 11.8697 11.5494 11.8465C11.5604 11.8119 11.5759 11.779 11.5955 11.7484C11.6086 11.7258 11.6241 11.7046 11.6416 11.6852C11.6653 11.6576 11.6922 11.633 11.7217 11.6117C11.7777 11.571 11.8418 11.5427 11.9096 11.5285C11.9232 11.5262 11.9361 11.5242 11.9486 11.5227C11.9611 11.5211 11.9842 11.5195 12.0025 11.5195C12.0209 11.5195 12.0389 11.5195 12.0564 11.5227C12.078 11.5246 12.0993 11.5285 12.1201 11.5344C12.1555 11.5429 12.1897 11.5561 12.2217 11.5734C12.2479 11.5865 12.2726 11.6024 12.2955 11.6207C12.3248 11.6422 12.3511 11.6676 12.3736 11.6961C12.39 11.7148 12.4044 11.735 12.4166 11.7566C12.4352 11.7877 12.45 11.8209 12.4607 11.8555C12.4675 11.876 12.4726 11.897 12.476 11.9184C12.4796 11.945 12.481 11.9719 12.4803 11.9988Z" fill="#495F6A"/>
<path opacity="0.9" d="M12.4803 11.9988C12.481 12.0079 12.481 12.0171 12.4803 12.0262C12.4796 12.0513 12.4764 12.0763 12.4709 12.1008C12.4633 12.1363 12.4515 12.1708 12.4357 12.2035C12.4229 12.231 12.4074 12.2571 12.3896 12.2816C12.3683 12.3104 12.3436 12.3367 12.3162 12.3598C12.2986 12.3755 12.2797 12.3896 12.2596 12.402C12.229 12.4216 12.1962 12.4375 12.1619 12.4492C12.1278 12.462 12.0923 12.4702 12.0561 12.4738C12.0203 12.4785 11.984 12.4785 11.9482 12.4738C11.9198 12.471 11.8916 12.4654 11.8643 12.457C11.8295 12.4469 11.7962 12.4325 11.765 12.4141C11.7416 12.401 11.7194 12.3858 11.6986 12.3688C11.6703 12.346 11.645 12.3197 11.6232 12.2906C11.6035 12.2665 11.5864 12.2403 11.5725 12.2125C11.5561 12.18 11.5439 12.1456 11.5361 12.1102C11.5291 12.0828 11.5251 12.0548 11.524 12.0266C11.5232 12.0175 11.5232 12.0083 11.524 11.9992C11.5242 11.972 11.5265 11.9448 11.5311 11.918C11.5348 11.8936 11.541 11.8697 11.5494 11.8465C11.5604 11.8119 11.5759 11.779 11.5955 11.7484C11.6086 11.7258 11.6241 11.7046 11.6416 11.6852C11.6653 11.6576 11.6922 11.633 11.7217 11.6117C11.7777 11.571 11.8418 11.5427 11.9096 11.5285C11.9232 11.5262 11.9361 11.5242 11.9486 11.5227C11.9611 11.5211 11.9842 11.5195 12.0025 11.5195C12.0209 11.5195 12.0389 11.5195 12.0564 11.5227C12.078 11.5246 12.0993 11.5285 12.1201 11.5344C12.1555 11.5429 12.1897 11.5561 12.2217 11.5734C12.2479 11.5865 12.2726 11.6024 12.2955 11.6207C12.3248 11.6422 12.3511 11.6676 12.3736 11.6961C12.39 11.7148 12.4044 11.735 12.4166 11.7566C12.4352 11.7877 12.45 11.8209 12.4607 11.8555C12.4675 11.876 12.4726 11.897 12.476 11.9184C12.4796 11.945 12.481 11.9719 12.4803 11.9988Z" fill="#495F6A"/>
<path opacity="0.9" d="M11.3371 12.0266H9.99766C9.98326 12.0266 9.96945 12.0208 9.95926 12.0107C9.94908 12.0005 9.94336 11.9867 9.94336 11.9723C9.94336 11.9579 9.94908 11.9441 9.95926 11.9339C9.96945 11.9237 9.98326 11.918 9.99766 11.918H11.3402C11.3376 11.945 11.3366 11.9721 11.3371 11.9992V12.0266Z" fill="#495F6A"/>
<path opacity="0.9" d="M11.3977 12.2809L10.1622 12.7789C10.1558 12.7814 10.1491 12.7827 10.1423 12.7828C10.1297 12.7828 10.1174 12.7785 10.1077 12.7704C10.0979 12.7624 10.0913 12.7512 10.0889 12.7389C10.0865 12.7265 10.0885 12.7136 10.0945 12.7025C10.1005 12.6915 10.1103 12.6828 10.122 12.6781L11.3602 12.1797C11.37 12.2144 11.3826 12.2482 11.3977 12.2809Z" fill="#495F6A"/>
<path opacity="0.9" d="M10.1171 11.2135C10.1226 11.2003 10.1331 11.1897 10.1463 11.1841C10.1595 11.1785 10.1744 11.1782 10.1878 11.1834L11.4182 11.6791C11.4004 11.7107 11.3854 11.7438 11.3733 11.7779L10.1475 11.2842C10.1342 11.2788 10.1235 11.2683 10.1177 11.2551C10.112 11.2419 10.1118 11.2269 10.1171 11.2135Z" fill="#495F6A"/>
<path opacity="0.9" d="M11.5656 12.5035L10.6133 13.4551C10.6082 13.4603 10.6021 13.4644 10.5954 13.4672C10.5887 13.4701 10.5815 13.4715 10.5742 13.4715C10.5635 13.4715 10.5529 13.4683 10.544 13.4623C10.535 13.4564 10.528 13.4479 10.5238 13.438C10.5196 13.4281 10.5185 13.4171 10.5205 13.4065C10.5225 13.396 10.5276 13.3862 10.5352 13.3785L11.4879 12.4258C11.5116 12.4538 11.5376 12.4798 11.5656 12.5035Z" fill="#495F6A"/>
<path opacity="0.9" d="M10.556 10.6015C10.5507 10.5965 10.5464 10.5905 10.5435 10.5838C10.5406 10.577 10.5391 10.5698 10.5391 10.5625C10.5391 10.5551 10.5406 10.5479 10.5435 10.5412C10.5464 10.5345 10.5507 10.5284 10.556 10.5234C10.5662 10.5134 10.5798 10.5078 10.5941 10.5078C10.6083 10.5078 10.622 10.5134 10.6322 10.5234L11.5861 11.4773C11.5581 11.4999 11.532 11.5248 11.508 11.5515L10.556 10.6015Z" fill="#495F6A"/>
<path opacity="0.9" d="M11.6949 12.5898C11.7267 12.607 11.7601 12.6211 11.7945 12.632L11.3039 13.85C11.2997 13.86 11.2927 13.8686 11.2837 13.8747C11.2746 13.8807 11.264 13.884 11.2531 13.884C11.2462 13.8838 11.2393 13.8825 11.2328 13.8801C11.2196 13.8745 11.209 13.8639 11.2035 13.8506C11.1979 13.8373 11.1978 13.8224 11.2031 13.809L11.6949 12.5898Z" fill="#495F6A"/>
<path opacity="0.9" d="M11.2284 10.1327C11.225 10.126 11.2231 10.1187 11.2227 10.1112C11.2224 10.1037 11.2236 10.0962 11.2262 10.0892C11.2289 10.0822 11.2331 10.0759 11.2383 10.0706C11.2436 10.0653 11.25 10.0611 11.2569 10.0584C11.2639 10.0557 11.2714 10.0544 11.2789 10.0547C11.2864 10.0551 11.2937 10.0569 11.3004 10.0603C11.3072 10.0636 11.3131 10.0683 11.3179 10.074C11.3227 10.0798 11.3263 10.0865 11.3284 10.0937L11.8362 11.355C11.8011 11.3638 11.7668 11.3757 11.7338 11.3905L11.2284 10.1327Z" fill="#495F6A"/>
<path opacity="0.9" d="M12.0012 11.3348C11.9828 11.3348 11.9648 11.3348 11.9473 11.3367V9.99531C11.9473 9.98102 11.9529 9.9673 11.9631 9.95719C11.9732 9.94709 11.9869 9.94141 12.0012 9.94141C12.0155 9.94141 12.0292 9.94709 12.0393 9.95719C12.0494 9.9673 12.0551 9.98102 12.0551 9.99531V11.3348C12.0375 11.3348 12.0195 11.3348 12.0012 11.3348Z" fill="#495F6A"/>
<path opacity="0.9" d="M12.0012 12.666C12.0195 12.666 12.0375 12.666 12.0551 12.6641V14.0035C12.0551 14.0178 12.0494 14.0315 12.0393 14.0416C12.0292 14.0517 12.0155 14.0574 12.0012 14.0574C11.9869 14.0574 11.9732 14.0517 11.9631 14.0416C11.9529 14.0315 11.9473 14.0178 11.9473 14.0035V12.6641C11.9648 12.6641 11.9828 12.666 12.0012 12.666Z" fill="#495F6A"/>
<path opacity="0.9" d="M12.2906 11.4006C12.258 11.3849 12.2242 11.3719 12.1895 11.3615L12.7 10.0943C12.702 10.087 12.7056 10.0803 12.7104 10.0744C12.7152 10.0686 12.7212 10.0638 12.728 10.0604C12.7348 10.057 12.7422 10.0551 12.7497 10.0547C12.7573 10.0544 12.7648 10.0556 12.7719 10.0584C12.779 10.0611 12.7854 10.0653 12.7907 10.0706C12.7961 10.076 12.8002 10.0824 12.803 10.0895C12.8057 10.0966 12.8069 10.1041 12.8065 10.1117C12.8061 10.1192 12.8042 10.1266 12.8008 10.1334L12.2906 11.4006Z" fill="#495F6A"/>
<path opacity="0.9" d="M12.8266 13.8082C12.8293 13.8148 12.8307 13.822 12.8306 13.8291C12.8306 13.8363 12.8292 13.8434 12.8264 13.85C12.8236 13.8566 12.8195 13.8626 12.8144 13.8677C12.8092 13.8727 12.8032 13.8766 12.7965 13.8793C12.79 13.8818 12.7831 13.8831 12.7762 13.8832C12.7654 13.8831 12.7549 13.8799 12.746 13.8738C12.7371 13.8678 12.7302 13.8592 12.7262 13.8492L12.2324 12.6234C12.2664 12.6112 12.2992 12.596 12.3305 12.5781L12.8266 13.8082Z" fill="#495F6A"/>
<path opacity="0.9" d="M12.4277 11.4858L13.3707 10.5428C13.3811 10.5327 13.395 10.5272 13.4095 10.5273C13.4239 10.5275 13.4378 10.5335 13.4479 10.5438C13.458 10.5542 13.4635 10.5681 13.4633 10.5826C13.4632 10.5971 13.4572 10.6109 13.4469 10.621L12.5047 11.5635C12.4813 11.5355 12.4555 11.5095 12.4277 11.4858Z" fill="#495F6A"/>
<path opacity="0.9" d="M13.4672 13.3598C13.4775 13.3701 13.4834 13.3842 13.4834 13.3988C13.4834 13.4135 13.4775 13.4275 13.4672 13.4379C13.4568 13.4483 13.4428 13.4541 13.4281 13.4541C13.4135 13.4541 13.3994 13.4483 13.3891 13.4379L12.4473 12.4961C12.474 12.4721 12.4989 12.4459 12.5215 12.418L13.4672 13.3598Z" fill="#495F6A"/>
<path opacity="0.9" d="M12.5859 11.686L13.8359 11.1817C13.8489 11.1781 13.8628 11.1794 13.8749 11.1854C13.8869 11.1915 13.8963 11.2018 13.9012 11.2144C13.9061 11.2269 13.9061 11.2409 13.9013 11.2535C13.8964 11.2661 13.8871 11.2764 13.875 11.2825L12.625 11.7856C12.6151 11.7513 12.602 11.7179 12.5859 11.686Z" fill="#495F6A"/>
<path opacity="0.9" d="M13.9344 12.7516C13.9303 12.7615 13.9233 12.77 13.9145 12.776C13.9056 12.7821 13.8951 12.7854 13.8844 12.7855C13.8773 12.7854 13.8703 12.7841 13.8637 12.7816L12.6074 12.2738C12.6221 12.2408 12.6343 12.2067 12.6437 12.1719L13.9047 12.6797C13.9114 12.6824 13.9175 12.6865 13.9226 12.6916C13.9277 12.6967 13.9318 12.7027 13.9345 12.7094C13.9373 12.7161 13.9387 12.7233 13.9387 12.7305C13.9386 12.7377 13.9372 12.7449 13.9344 12.7516Z" fill="#495F6A"/>
<path opacity="0.9" d="M14.0594 11.9719C14.0594 11.9864 14.0536 12.0003 14.0434 12.0106C14.0331 12.0209 14.0192 12.0266 14.0047 12.0266H12.6652C12.6652 12.0176 12.6652 12.0083 12.6652 11.9993C12.6651 11.9721 12.6634 11.945 12.6602 11.918H14.0027C14.01 11.9177 14.0173 11.9189 14.0241 11.9214C14.031 11.924 14.0372 11.9279 14.0425 11.9329C14.0478 11.938 14.052 11.944 14.0549 11.9507C14.0578 11.9574 14.0593 11.9646 14.0594 11.9719Z" fill="#495F6A"/>
<path opacity="0.9" d="M29.4142 9.5C28.5233 9.5 28.0771 10.5771 28.7071 11.2071L31.2929 13.7929C31.6834 14.1834 32.3166 14.1834 32.7071 13.7929L35.2929 11.2071C35.9229 10.5771 35.4767 9.5 34.5858 9.5H29.4142Z" fill="#495F6A"/>
</svg>
