<svg width="22" height="22" viewBox="0 0 22 22" fill="none" xmlns="http://www.w3.org/2000/svg">
<path d="M18.3333 10.9998C18.3333 10.4936 17.9229 10.0832 17.4167 10.0832H9.59171C8.70081 10.0832 8.25464 9.00603 8.8846 8.37606L11.6508 5.60984C12.0099 5.25077 12.0089 4.66827 11.6485 4.31047C11.29 3.95445 10.711 3.95547 10.3537 4.31276L4.37377 10.2927C3.98325 10.6833 3.98325 11.3164 4.37377 11.7069L10.3535 17.6866C10.7105 18.0437 11.2895 18.0437 11.6465 17.6866C12.0034 17.3298 12.0036 16.7513 11.6471 16.3941L8.88092 13.623C8.25182 12.9928 8.69818 11.9165 9.58866 11.9165H17.4167C17.9229 11.9165 18.3333 11.5061 18.3333 10.9998Z" fill="#495F6A"/>
</svg>
