<svg width="90" height="18" viewBox="0 0 90 18" fill="none" xmlns="http://www.w3.org/2000/svg">
<path d="M8.48326 13.6394C8.80106 13.4476 9.19894 13.4476 9.51674 13.6394L11.606 14.9004C12.3633 15.3575 13.2975 14.6785 13.0966 13.817L12.5421 11.4403C12.4578 11.0788 12.5806 10.7003 12.8612 10.4573L14.7086 8.85689C15.3772 8.27768 15.0198 7.17942 14.1384 7.10464L11.7084 6.89848C11.3388 6.86712 11.0169 6.63379 10.8722 6.29229L9.92072 4.04737C9.57613 3.23434 8.42387 3.23434 8.07928 4.04737L7.12782 6.29229C6.98308 6.63379 6.66121 6.86712 6.29164 6.89848L3.86163 7.10464C2.98021 7.17942 2.6228 8.27768 3.29139 8.85689L5.13879 10.4573C5.41936 10.7003 5.54221 11.0788 5.45787 11.4403L4.90341 13.817C4.70245 14.6785 5.63668 15.3575 6.394 14.9004L8.48326 13.6394Z" fill="#FFB400"/>
<path d="M26.4833 13.6394C26.8011 13.4476 27.1989 13.4476 27.5167 13.6394L29.606 14.9004C30.3633 15.3575 31.2975 14.6785 31.0966 13.817L30.5421 11.4403C30.4578 11.0788 30.5806 10.7003 30.8612 10.4573L32.7086 8.85689C33.3772 8.27768 33.0198 7.17942 32.1384 7.10464L29.7084 6.89848C29.3388 6.86712 29.0169 6.63379 28.8722 6.29229L27.9207 4.04737C27.5761 3.23434 26.4239 3.23434 26.0793 4.04737L25.1278 6.29229C24.9831 6.63379 24.6612 6.86712 24.2916 6.89848L21.8616 7.10464C20.9802 7.17942 20.6228 8.27768 21.2914 8.85689L23.1388 10.4573C23.4194 10.7003 23.5422 11.0788 23.4579 11.4403L22.9034 13.817C22.7025 14.6785 23.6367 15.3575 24.394 14.9004L26.4833 13.6394Z" fill="#FFB400"/>
<path d="M44.4833 13.6394C44.8011 13.4476 45.1989 13.4476 45.5167 13.6394L47.606 14.9004C48.3633 15.3575 49.2975 14.6785 49.0966 13.817L48.5421 11.4403C48.4578 11.0788 48.5806 10.7003 48.8612 10.4573L50.7086 8.85689C51.3772 8.27768 51.0198 7.17942 50.1384 7.10464L47.7084 6.89848C47.3388 6.86712 47.0169 6.63379 46.8722 6.29229L45.9207 4.04737C45.5761 3.23434 44.4239 3.23434 44.0793 4.04737L43.1278 6.29229C42.9831 6.63379 42.6612 6.86712 42.2916 6.89848L39.8616 7.10464C38.9802 7.17942 38.6228 8.27768 39.2914 8.85689L41.1388 10.4573C41.4194 10.7003 41.5422 11.0788 41.4579 11.4403L40.9034 13.817C40.7025 14.6785 41.6367 15.3575 42.394 14.9004L44.4833 13.6394Z" fill="#FFB400"/>
<path d="M62.4833 13.6394C62.8011 13.4476 63.1989 13.4476 63.5167 13.6394L65.606 14.9004C66.3633 15.3575 67.2975 14.6785 67.0966 13.817L66.5421 11.4403C66.4578 11.0788 66.5806 10.7003 66.8612 10.4573L68.7086 8.85689C69.3772 8.27768 69.0198 7.17942 68.1384 7.10464L65.7084 6.89848C65.3388 6.86712 65.0169 6.63379 64.8722 6.29229L63.9207 4.04737C63.5761 3.23434 62.4239 3.23434 62.0793 4.04737L61.1278 6.29229C60.9831 6.63379 60.6612 6.86712 60.2916 6.89848L57.8616 7.10464C56.9802 7.17942 56.6228 8.27768 57.2914 8.85689L59.1388 10.4573C59.4194 10.7003 59.5422 11.0788 59.4579 11.4403L58.9034 13.817C58.7025 14.6785 59.6367 15.3575 60.394 14.9004L62.4833 13.6394Z" fill="#FFB400"/>
<mask id="mask0_2961_54370" style="mask-type:alpha" maskUnits="userSpaceOnUse" x="72" y="0" width="18" height="18">
<path d="M86.7157 8.85356C87.383 8.27447 87.0264 7.17793 86.1462 7.10203L83.707 6.89169C83.3381 6.85989 83.017 6.62691 82.8724 6.28612L81.9212 4.04523C81.5763 3.23263 80.4245 3.23294 80.08 4.04573L79.1278 6.29229C78.9831 6.63379 78.6612 6.86712 78.2916 6.89848L75.8616 7.10464C74.9802 7.17942 74.6228 8.27768 75.2914 8.85689L77.1388 10.4573C77.4194 10.7003 77.5422 11.0788 77.4579 11.4403L76.9034 13.817C76.7025 14.6785 77.6367 15.3575 78.394 14.9004L80.4833 13.6394C80.8011 13.4476 81.1989 13.4476 81.5167 13.6394L83.6098 14.9027C84.3666 15.3594 85.3004 14.6817 85.1007 13.8207L84.5485 11.439C84.4648 11.0782 84.5875 10.7007 84.8672 10.4579L86.7157 8.85356ZM81.4825 12.2168C81.183 12.0357 81 11.7111 81 11.3611V7.88204C81 7.23356 81.8901 7.05294 82.1429 7.65013C82.2288 7.85307 82.4198 7.99191 82.6394 8.01096L83.2147 8.06088C84.0948 8.13723 84.4508 9.23368 83.7835 9.81252L83.5333 10.0296C83.253 10.2728 83.1303 10.6512 83.2148 11.0125L83.2874 11.3233C83.4888 12.1852 82.5535 12.8645 81.7961 12.4065L81.4825 12.2168Z" fill="black"/>
</mask>
<g mask="url(#mask0_2961_54370)">
<rect x="72" width="9" height="18" fill="#FFB400"/>
<rect x="81" width="9" height="18" fill="#574B9B" fill-opacity="0.23"/>
</g>
</svg>
