<svg width="22" height="22" viewBox="0 0 22 22" fill="none" xmlns="http://www.w3.org/2000/svg">
<path d="M3.66667 10.9998C3.66667 10.4936 4.07707 10.0832 4.58333 10.0832H12.4083C13.2992 10.0832 13.7454 9.00603 13.1154 8.37606L10.3492 5.60984C9.99009 5.25077 9.99112 4.66827 10.3515 4.31047C10.71 3.95445 11.289 3.95547 11.6463 4.31276L17.6262 10.2927C18.0168 10.6833 18.0167 11.3164 17.6262 11.7069L11.6465 17.6866C11.2895 18.0437 10.7105 18.0437 10.3535 17.6866C9.99661 17.3298 9.99635 16.7513 10.3529 16.3941L13.1191 13.623C13.7482 12.9928 13.3018 11.9165 12.4113 11.9165H4.58333C4.07707 11.9165 3.66667 11.5061 3.66667 10.9998Z" fill="#495F6A"/>
</svg>
