<svg width="24" height="24" viewBox="0 0 24 24" fill="none" xmlns="http://www.w3.org/2000/svg">
<path fill-rule="evenodd" clip-rule="evenodd" d="M16.5445 11.0222C16.5445 14.0721 14.0721 16.5445 11.0222 16.5445C7.97238 16.5445 5.5 14.0721 5.5 11.0222C5.5 7.97238 7.97238 5.5 11.0222 5.5C14.0721 5.5 16.5445 7.97238 16.5445 11.0222ZM15.5848 17.0033C14.3192 17.9701 12.7378 18.5445 11.0222 18.5445C6.86782 18.5445 3.5 15.1766 3.5 11.0222C3.5 6.86782 6.86782 3.5 11.0222 3.5C15.1766 3.5 18.5445 6.86782 18.5445 11.0222C18.5445 12.7379 17.9701 14.3193 17.0032 15.5849L20.2083 18.79C20.5988 19.1805 20.5967 19.8158 20.2062 20.2063C19.8157 20.5968 19.1804 20.5989 18.7899 20.2084L15.5848 17.0033Z" fill="#574B9B" fill-opacity="0.54"/>
</svg>
